<?xml version="1.0" encoding="utf-8"?>
<!-- Generator: Adobe Illustrator 16.0.0, SVG Export Plug-In . SVG Version: 6.00 Build 0)  -->
<!DOCTYPE svg PUBLIC "-//W3C//DTD SVG 1.1//EN" "http://www.w3.org/Graphics/SVG/1.1/DTD/svg11.dtd">
<svg version="1.1" id="レイヤー_1" xmlns="http://www.w3.org/2000/svg" xmlns:xlink="http://www.w3.org/1999/xlink" x="0px"
	 y="0px" width="99.213px" height="99.212px" viewBox="0 0 99.213 99.212" enable-background="new 0 0 99.213 99.212"
	 xml:space="preserve">
<path fill="#FFFFFF" d="M80.548,70.667c1.245-1.102,2.413-2.281,3.484-3.559c1.973-2.359,3.446-4.789,4.425-7.313h-8.688
	c-0.749,1.885-1.763,3.713-3.042,5.486l-0.066-0.129c-0.691-1.355-1.495-3.043-2.414-5.076c-1.181-2.641-1.928-4.311-2.267-4.977
	c-0.48-0.934-0.958-1.799-1.46-2.57c-0.606-1.063-1.378-1.961-2.267-2.674c2.944-1.6,5.189-3.161,6.692-4.646
	c3.211-3.12,4.834-6.204,4.834-9.241c0-1.541-0.384-3.035-1.155-4.437c-0.77-1.392-1.821-2.522-3.153-3.388
	c-1.682-1.145-3.83-2.01-6.436-2.57c-2.603-0.606-5.502-0.91-8.7-0.91c-3.083,0-6.097,0.279-9.041,0.795
	c-2.977,0.513-5.793,1.284-8.444,2.301c-2.533,0.97-4.893,2.187-7.09,3.654c-1.517,1.041-2.896,2.173-4.135,3.409
	c-1.271,1.298-2.322,2.616-3.174,3.948c-0.89,1.484-1.543,2.92-1.965,4.276c-0.467,1.413-0.713,2.824-0.713,4.226
	c0,3.342,1.145,6.098,3.422,8.27c2.291,2.148,5.197,3.236,8.762,3.236c2.287,0,4.646-0.609,7.053-1.822
	c1.145-0.572,2.196-1.227,3.225-1.975c0.979-0.736,1.916-1.588,2.733-2.521c1.541-1.824,2.337-3.622,2.337-5.396
	c0-1.239-0.468-2.302-1.426-3.2c-0.9-0.889-2.081-1.332-3.493-1.332c-1.508,0-2.962,0.422-4.356,1.297
	c-0.515,0.326-0.771,0.547-0.771,0.713c0,0.301,0.188,0.443,0.561,0.443c0.12,0,0.257-0.024,0.398-0.07
	c0.512-0.211,0.934-0.305,1.273-0.305c1.201,0,2.229,0.443,3.094,1.309c0.822,0.887,1.214,2.008,1.214,3.375
	c0,1.342-0.392,2.536-1.18,3.575c-0.804,1.063-1.88,1.881-3.235,2.453c-1.377,0.598-2.941,0.898-4.717,0.898
	c-2.592,0-4.858-0.746-6.82-2.238c-1.484-1.148-2.688-2.643-3.599-4.502c-0.91-1.809-1.353-3.584-1.353-5.346
	c0-3.063,1.214-5.83,3.619-8.329c2.359-2.464,5.654-4.415,9.928-5.852c4.215-1.391,8.969-2.065,14.271-2.065
	c2.595,0,5.045,0.115,7.37,0.395c-0.045,0.049-0.094,0.094-0.151,0.129c-0.046,0.037-0.104,0.082-0.188,0.131
	c-0.034,0.045-0.094,0.093-0.139,0.139c-0.048,0.068-0.117,0.117-0.177,0.162c-1.868,1.519-3.259,2.84-4.169,3.973
	c-0.887,1.121-1.564,2.429-2.008,3.947c-0.48,1.495-0.889,3.621-1.235,6.389c-0.739,5.488-1.172,8.584-1.266,9.309
	c-0.28,1.637-0.536,2.895-0.817,3.785c-0.304,0.99-0.699,2.006-1.214,3.01c-0.852,1.721-2.184,3.084-3.995,4.09
	c-1.799,1.027-3.758,1.541-5.84,1.541c-1.132,0-2.149-0.256-3.014-0.748c-0.842-0.512-1.261-1.143-1.261-1.869
	c0-0.467,0.198-0.934,0.606-1.4c0.094-0.152,0.141-0.281,0.141-0.375c0-0.279-0.141-0.418-0.456-0.418
	c-0.291,0-0.876,0.443-1.74,1.342c-1.589,1.623-2.382,2.932-2.382,3.984c0,0.711,0.385,1.354,1.146,1.893
	c0.725,0.488,1.656,0.746,2.803,0.746c2.076,0,4.426-0.561,7.052-1.67c2.664-1.121,5.046-2.572,7.149-4.357
	c1.811-1.539,3.281-3.176,4.392-4.906c1.063-1.74,1.8-3.689,2.194-5.859l0.771-0.051l1.449-0.115c0.129,0,0.562-0.047,1.309-0.117
	l0.678-0.023c0.827,0.678,1.495,1.332,1.962,1.928c0.471,0.619,1.004,1.494,1.564,2.629c0.571,1.217,1.215,2.803,1.976,4.74
	c1.225,3.035,2.347,5.537,3.351,7.465c0.196,0.377,0.394,0.74,0.591,1.094l0.206,0.365c-2.283,2.217-4.867,4.014-7.735,5.396
	c-3.865,1.834-7.966,2.92-12.264,3.27c-4.346,0.373-8.666-0.117-13.011-1.484c-4.229-1.273-7.989-3.293-11.26-6.039
	c-5.139-4.318-8.35-9.574-9.646-15.789c-1.6-7.336,0.245-14.157,5.536-20.44c3.225-3.865,7.056-6.832,11.47-8.896
	c4.531-2.198,9.296-3.471,14.295-3.811c1.098-0.094,2.208-0.117,3.319-0.117c0.803-0.828,1.551-1.727,2.055-2.872
	c-1.775-0.024-3.574,0.048-5.374,0.187c-7.242,0.502-13.991,2.035-20.215,4.61c-6.391,2.618-11.401,6.089-15.01,10.387
	c-2.99,3.55-4.766,7.616-5.302,12.159c-0.537,4.506,0.151,9.004,2.031,13.512c1.94,4.414,4.917,8.316,8.958,11.705
	c4.219,3.525,9.205,6.141,14.984,7.848c5.816,1.705,11.75,2.336,17.799,1.928c6.073-0.389,11.751-1.717,16.994-4.008
	c2.026-0.885,3.915-1.908,5.673-3.064l0.242,0.188c1.079,0.797,2.332,1.195,3.767,1.195c2.128,0,4.626-0.654,7.513-1.975
	c0.64-0.291,0.969-0.523,0.969-0.689c0-0.256-0.152-0.373-0.454-0.373c-0.131,0-0.294,0.047-0.515,0.141
	c-0.807,0.326-1.695,0.49-2.606,0.49c-1.764,0-3.363-0.584-4.765-1.705c-0.053-0.045-0.105-0.094-0.157-0.143L80.548,70.667z
	 M66.245,47.648c-0.934,0-1.962-0.094-3.038-0.326c-0.747-0.117-1.189-0.187-1.355-0.187c-0.208,0-0.374,0.045-0.467,0.139
	c-0.188,0.166-0.468,0.446-0.862,0.865c-0.118,0.166-0.235,0.259-0.328,0.339c-0.118,0.069-0.223,0.176-0.351,0.339l0.07-0.643
	c0.068-0.537,0.141-1.016,0.187-1.447c0.048-0.176,0.059-0.363,0.094-0.55c0.048-0.211,0.069-0.351,0.069-0.491
	c0.048-0.488,0.071-0.862,0.093-1.121c0.539-4.402,1.241-8.06,2.128-10.932c0.325-1.145,0.771-2.101,1.308-2.932
	c0.513-0.795,1.201-1.529,2.056-2.23c2.242,0.352,4.17,0.934,5.745,1.754c1.495,0.816,2.615,1.879,3.353,3.197
	c0.736,1.313,1.121,2.886,1.121,4.72c0,2.71-0.945,4.976-2.792,6.796C71.405,46.763,69.07,47.648,66.245,47.648z"/>
</svg>
